# xmcd
#
# Track frame offsets: 
#        150
#        16338
#        31255
#        48855
#        65666
#        85318
#        100799
#        122253
#        135386
#        150638
#        172955
#
# Disc length: 2496 seconds
#
# Revision: 0
# Processed by: cddbd v1.5.2PL0 Copyright (c) Steve Scherf et al.
# Submitted via: ExactAudioCopyFreeDBPlugin 1.0
#
DISCID=7b09be0b
DTITLE=Ken Franz - Take Me Back To Texas
DYEAR=2004
DGENRE=Swing
TTITLE0=Love And Learn
TTITLE1=Take Me Back To Texas
TTITLE2=When You Put Your Hand In Mine
TTITLE3=Pride Comes Before A Fall
TTITLE4=Autumn In The Heartland
TTITLE5=Bluebonnet Blue
TTITLE6=Another Day Closer To You
TTITLE7=You've Been Hit By Love
TTITLE8=Wanted
TTITLE9=I Still Mean What I Said
TTITLE10=I've Quit Howlin'
EXTD=
EXTT0=
EXTT1=
EXTT2=
EXTT3=
EXTT4=
EXTT5=
EXTT6=
EXTT7=
EXTT8=
EXTT9=
EXTT10=
PLAYORDER=
